<svg xmlns="http://www.w3.org/2000/svg" width="160" height="160" viewBox="0 0 160 160"><path d="M-1141.465-303.618A6.109,6.109,0,0,1-1143.6-305a6.308,6.308,0,0,1-1.4-2.176,7.719,7.719,0,0,1-.5-2.851,7.727,7.727,0,0,1,.5-2.851,6.308,6.308,0,0,1,1.4-2.176,6.135,6.135,0,0,1,2.131-1.378,7.3,7.3,0,0,1,2.694-.483,7.3,7.3,0,0,1,2.693.483,6.13,6.13,0,0,1,2.13,1.378,6.3,6.3,0,0,1,1.4,2.176,7.742,7.742,0,0,1,.5,2.851,7.734,7.734,0,0,1-.5,2.851,6.3,6.3,0,0,1-1.4,2.176,6.1,6.1,0,0,1-2.13,1.38,7.349,7.349,0,0,1-2.693.48A7.351,7.351,0,0,1-1141.465-303.618Zm1.1-10.313a3.592,3.592,0,0,0-1.224.879,3.917,3.917,0,0,0-.784,1.343,5.047,5.047,0,0,0-.272,1.684,5.04,5.04,0,0,0,.272,1.7,3.933,3.933,0,0,0,.784,1.332,3.533,3.533,0,0,0,1.224.879,3.886,3.886,0,0,0,1.593.316,3.882,3.882,0,0,0,1.592-.316,3.525,3.525,0,0,0,1.224-.879,3.932,3.932,0,0,0,.783-1.332,5.028,5.028,0,0,0,.272-1.7,5.035,5.035,0,0,0-.272-1.684,3.916,3.916,0,0,0-.783-1.343,3.584,3.584,0,0,0-1.224-.879,3.882,3.882,0,0,0-1.592-.316A3.886,3.886,0,0,0-1140.365-313.931Zm-19.852,10.4a5.567,5.567,0,0,1-1.937-1.258l1.955-2.258a2.867,2.867,0,0,0,1.064.915,2.912,2.912,0,0,0,1.33.325,2.9,2.9,0,0,0,.677-.082,2.157,2.157,0,0,0,.616-.252,1.343,1.343,0,0,0,.441-.426,1.11,1.11,0,0,0,.166-.611,1.126,1.126,0,0,0-.432-.933,3.876,3.876,0,0,0-1.082-.583q-.652-.241-1.409-.483a6.143,6.143,0,0,1-1.408-.647,3.46,3.46,0,0,1-1.082-1.073,3.187,3.187,0,0,1-.432-1.76,4.115,4.115,0,0,1,.4-1.851,3.965,3.965,0,0,1,1.057-1.332,4.466,4.466,0,0,1,1.523-.805,5.889,5.889,0,0,1,1.777-.27,6.636,6.636,0,0,1,2.041.316,4.649,4.649,0,0,1,1.78,1.055l-1.883,2.167a1.969,1.969,0,0,0-.907-.659,3.115,3.115,0,0,0-1.085-.213,2.63,2.63,0,0,0-.614.075,2.222,2.222,0,0,0-.6.231,1.314,1.314,0,0,0-.459.416,1.1,1.1,0,0,0-.175.629,1.061,1.061,0,0,0,.422.908,4,4,0,0,0,1.065.535q.641.223,1.382.444a5.614,5.614,0,0,1,1.381.629,3.335,3.335,0,0,1,1.066,1.094,3.459,3.459,0,0,1,.423,1.833,4.377,4.377,0,0,1-.389,1.906,3.805,3.805,0,0,1-1.046,1.352,4.432,4.432,0,0,1-1.532.8,6.463,6.463,0,0,1-1.841.259A6.341,6.341,0,0,1-1160.216-303.527Zm130.027.058v-13.109h8.466v2.666h-5.721v2.443h5.4v2.666h-5.4v2.666h6.039v2.668Zm-11.1,0-2.605-5.24h-1.354v5.24h-2.747v-13.109h4.824a8.055,8.055,0,0,1,1.8.195,4.142,4.142,0,0,1,1.5.648,3.165,3.165,0,0,1,1.021,1.222,4.326,4.326,0,0,1,.377,1.918,3.99,3.99,0,0,1-.686,2.359,3.061,3.061,0,0,1-2.007,1.231l3.167,5.538Zm-3.96-7.684h1.62c.245,0,.506-.009.783-.03a2.373,2.373,0,0,0,.747-.165,1.312,1.312,0,0,0,.556-.435,1.381,1.381,0,0,0,.221-.835,1.438,1.438,0,0,0-.194-.794,1.317,1.317,0,0,0-.495-.455,2.064,2.064,0,0,0-.686-.213,5.376,5.376,0,0,0-.756-.055h-1.8Zm-13.383,7.684-1.073-2.778h-4.842l-1.037,2.778h-3.029l5.386-13.109h2.27l5.422,13.109Zm-5.051-5.222h3.044l-1.53-4.073Zm-16.816,5.222-2.745-9.073h-.036l-2.745,9.073h-2.36l-3.7-13.109h2.993l1.989,8.4h.037l2.6-8.4h2.554l2.588,8.626h.034l2.095-8.626h2.783l-3.645,13.109Zm-24.259,0v-10.556h-3.557v-2.554h9.859v2.554h-3.557v10.556Zm-19.033,0v-13.109h8.362v2.666h-5.616v2.666h5.193v2.666h-5.193v5.112Zm97.3-23.646a7.306,7.306,0,0,1-3.119-3.053,11.927,11.927,0,0,1-1.3-4.965l7.162-1.025a8.981,8.981,0,0,0,.281,2.5,2.714,2.714,0,0,0,.893,1.322,1.976,1.976,0,0,0,1.224.329,1.992,1.992,0,0,0,1.843-.982,6.841,6.841,0,0,0,.588-3.313v-15.722h7.508v13.862a22.879,22.879,0,0,1-.735,6.643,7.58,7.58,0,0,1-2.961,3.862,9.6,9.6,0,0,1-5.7,1.581A12.594,12.594,0,0,1-1026.487-327.115Zm-100.42-.348a10.47,10.47,0,0,1-4.359-4.347,15.045,15.045,0,0,1-1.668-7.443q0-6.243,3.307-9.722t9.211-3.478q6.052,0,9.326,3.416t3.274,9.576a16.384,16.384,0,0,1-1.428,7.329,10.5,10.5,0,0,1-4.136,4.453,13.091,13.091,0,0,1-6.739,1.593A14.86,14.86,0,0,1-1126.907-327.463Zm2.835-17.34q-1.369,1.689-1.372,5.583,0,3.861,1.365,5.549a4.521,4.521,0,0,0,3.713,1.686,4.515,4.515,0,0,0,3.737-1.652q1.324-1.654,1.323-5.931,0-3.6-1.381-5.26a4.615,4.615,0,0,0-3.746-1.661A4.456,4.456,0,0,0-1124.073-344.8Zm76.842,18.28-4-7.793a5.948,5.948,0,0,0-1.355-1.966,3.037,3.037,0,0,0-1.836-.59h-.661v10.349h-7.526v-25.5h12.488a17.336,17.336,0,0,1,5.308.625,5.7,5.7,0,0,1,2.96,2.322,7.312,7.312,0,0,1,1.125,4.13,7.411,7.411,0,0,1-.859,3.661,6.919,6.919,0,0,1-2.367,2.5,8.83,8.83,0,0,1-2.629,1.009,7.276,7.276,0,0,1,1.951.938,7.766,7.766,0,0,1,1.2,1.341,10.1,10.1,0,0,1,1.05,1.581l3.621,7.393Zm-7.855-15.166h3.159a10.842,10.842,0,0,0,1.985-.348,1.983,1.983,0,0,0,1.214-.8,2.434,2.434,0,0,0,.47-1.478,2.4,2.4,0,0,0-.743-1.9,4.343,4.343,0,0,0-2.8-.661h-3.29Zm-41.314,15.166v-25.5h14.022a7.41,7.41,0,0,1,5.385,1.826,6.056,6.056,0,0,1,1.876,4.521,5.88,5.88,0,0,1-1.338,3.878,5.964,5.964,0,0,1-2.612,1.7,6.7,6.7,0,0,1,3.842,2.27,6.446,6.446,0,0,1,1.233,4.043,7.227,7.227,0,0,1-.878,3.565,6.618,6.618,0,0,1-2.4,2.505,7.641,7.641,0,0,1-2.844.835,31.471,31.471,0,0,1-3.359.348Zm7.558-5.48h3.82a4.047,4.047,0,0,0,2.727-.721,2.487,2.487,0,0,0,.794-1.94,2.292,2.292,0,0,0-.785-1.817,4.231,4.231,0,0,0-2.754-.686h-3.8Zm0-10.017h3.258a3.611,3.611,0,0,0,2.439-.634,2.382,2.382,0,0,0,.686-1.835,2.238,2.238,0,0,0-.686-1.739,3.55,3.55,0,0,0-2.39-.627h-3.307Zm-61.412,15.5v-19.445L-1155-326.523h-5.54l-4.73-19.445v19.445h-6.136v-25.5h9.855l3.805,15.514,3.786-15.514h9.823v25.5ZM-1139.8-443.66l.231-.185c7.283-5.8,14.11-8.521,19.517-7.4,14.739.46,33.623,71.905,33.623,71.905s6.02,29.291,28.584,8.4c13.611-12.6,30.79-4.121,43.466,6.025q1.456,2.07,2.968,4.32c-5.4-.2-159.993-.156-160,.094C-1169.081-385.767-1155.613-421.7-1139.8-443.66Zm57.483,59.35c-5.353-19.653-21.019-67.825-34.655-72.468a6.9,6.9,0,0,0-1.346-.316,23.323,23.323,0,0,0-10.307,1.181l-.711.247c5.922-5.338,11.9-8.164,17.53-7.327a4.485,4.485,0,0,1,1.051.293c10.654,4.32,27.531,48.982,31.714,67.274,0,0,3.24,23.106,15.23,9.059,4.028-4.709,13.865-20.051,37.865,6.709-21.046-10.512-32.735,1.014-36.875,5.08-3.578,3.517-6.548,4.866-9,4.867C-1079.875-369.711-1082.312-384.31-1082.312-384.31Z" transform="translate(1171.406 463.138)" fill="#eee"/></svg>